<svg width="47" height="50" viewBox="0 0 47 50" fill="none" xmlns="http://www.w3.org/2000/svg">
<path d="M22.344 0C23.0559 0.000785299 23.7406 0.271886 24.2582 0.757912C24.7759 1.24394 25.0874 1.9082 25.1291 2.61499C25.1708 3.32177 24.9396 4.01772 24.4827 4.56065C24.0258 5.10357 23.3777 5.45249 22.6708 5.53611L22.344 5.55556H8.379C7.6949 5.55565 7.03462 5.80543 6.52341 6.25754C6.01219 6.70965 5.68559 7.33264 5.60555 8.00833L5.586 8.33333V41.6667C5.58609 42.347 5.83725 43.0037 6.29183 43.5121C6.74642 44.0206 7.37282 44.3454 8.05222 44.425L8.379 44.4444H20.9475C21.6594 44.4452 22.3441 44.7163 22.8617 45.2024C23.3794 45.6884 23.6909 46.3526 23.7326 47.0594C23.7743 47.7662 23.5431 48.4622 23.0862 49.0051C22.6293 49.548 21.9812 49.8969 21.2743 49.9806L20.9475 50H8.379C6.24177 50.0001 4.18527 49.188 2.63028 47.7298C1.07529 46.2715 0.13935 44.2775 0.0139653 42.1556L1.30166e-08 41.6667V8.33333C-0.000119042 6.20775 0.816464 4.16246 2.28267 2.61594C3.74888 1.06943 5.75388 0.13859 7.88743 0.0138892L8.379 0H22.344ZM38.2836 15.1778L46.1822 23.0361C46.7059 23.557 47 24.2634 47 25C47 25.7366 46.7059 26.443 46.1822 26.9639L38.2836 34.8222C37.7596 35.3431 37.0489 35.6355 36.308 35.6353C35.5671 35.635 34.8567 35.3421 34.3329 34.8208C33.8092 34.2996 33.5152 33.5928 33.5154 32.856C33.5157 32.1191 33.8103 31.4125 34.3343 30.8917L37.4653 27.7778H22.344C21.6032 27.7778 20.8928 27.4851 20.369 26.9642C19.8453 26.4432 19.551 25.7367 19.551 25C19.551 24.2633 19.8453 23.5567 20.369 23.0358C20.8928 22.5149 21.6032 22.2222 22.344 22.2222H37.4653L34.3343 19.1083C33.8103 18.5875 33.5157 17.8809 33.5154 17.144C33.5152 16.4072 33.8092 15.7004 34.3329 15.1792C34.8567 14.6579 35.5671 14.365 36.308 14.3647C37.0489 14.3645 37.7596 14.6569 38.2836 15.1778Z" fill="#DCDCF0"/>
</svg>
